<svg data-v-9ec103a4="" width="32px" height="32px" viewBox="0 0 32 32" version="1.1" xmlns="http://www.w3.org/2000/svg" xmlns:xlink="http://www.w3.org/1999/xlink"><title data-v-9ec103a4="">foot_weibo</title> <desc data-v-9ec103a4="">Created with Sketch.</desc> <defs data-v-9ec103a4=""><polygon data-v-9ec103a4="" id="path-1" points="7.25920907e-16 13.5649739 7.25920907e-16 0.0155388605 17.350386 0.0155388605 17.350386 13.5649739"></polygon></defs> <g data-v-9ec103a4="" id="Page-1" stroke="none" stroke-width="1" fill="none" fill-rule="evenodd"><g data-v-9ec103a4="" id="首页" transform="translate(-673.000000, -4667.000000)"><g data-v-9ec103a4="" id="4" transform="translate(0.000000, 4008.000000)"><g data-v-9ec103a4="" id="Group-16" transform="translate(0.000000, 488.000000)"><g data-v-9ec103a4="" id="foot_weibo" transform="translate(673.000000, 171.000000)"><circle data-v-9ec103a4="" id="Oval-2" fill="#B8BBC0" cx="16" cy="16" r="16"></circle> <g data-v-9ec103a4="" id="Page-1" transform="translate(6.000000, 8.000000)"><g data-v-9ec103a4="" id="Group-3" transform="translate(0.000000, 2.210991)"><mask data-v-9ec103a4="" id="mask-2" fill="white"><use data-v-9ec103a4="" xlink:href="#path-1"></use></mask> <g data-v-9ec103a4="" id="Clip-2"></g> <path data-v-9ec103a4="" d="M8.35459649,12.410887 C5.06231579,12.7291478 2.22021053,11.2717565 2.00617544,9.15523478 C1.79249123,7.03871304 4.28898246,5.0648 7.58091228,4.74584348 C10.8735439,4.42723478 13.7156491,5.88462609 13.9293333,8.00045217 C14.1426667,10.1176696 11.6472281,12.0919304 8.35459649,12.410887 M14.9398596,5.38445217 C14.6595088,5.30236522 14.4675789,5.24601739 14.6145965,4.88566957 C14.9321404,4.1034087 14.9651228,3.42862609 14.6205614,2.94723478 C13.9749474,2.04358261 12.2082807,2.09262609 10.1837193,2.92288696 C10.1837193,2.92184348 9.54792982,3.19523478 9.71038596,2.70132174 C10.021614,1.72114783 9.97494737,0.899234783 9.49003509,0.425495652 C8.3914386,-0.651026087 5.47038596,0.465843478 2.96547368,2.91836522 C1.08933333,4.75593043 -0.000140350877,6.70306087 -0.000140350877,8.38688696 C-0.000140350877,11.6070609 4.21740351,13.5649739 8.34336842,13.5649739 C13.7524912,13.5649739 17.350386,10.4881043 17.350386,8.04462609 C17.350386,6.56845217 16.0805614,5.73088696 14.9398596,5.38445217" id="Fill-1" fill="#3D3D42" mask="url(#mask-2)"></path></g> <path data-v-9ec103a4="" d="M18.5317544,1.70170435 C17.2254386,0.283617391 15.2987719,-0.257252174 13.5205263,0.113182609 L13.5198246,0.113182609 C13.1082456,0.199443478 12.8457895,0.595617391 12.9338596,0.998052174 C13.0215789,1.40083478 13.4264912,1.65787826 13.8380702,1.57196522 C15.1029825,1.30866087 16.4721053,1.69370435 17.4005263,2.7010087 C18.3282456,3.70866087 18.5805263,5.08222609 18.1829825,6.28674783 L18.1833333,6.28709565 C18.0538596,6.67944348 18.272807,7.09926957 18.6742105,7.22587826 C19.0735088,7.35248696 19.5033333,7.13822609 19.632807,6.74692174 C19.632807,6.74622609 19.632807,6.74448696 19.6331579,6.74413913 C20.1903509,5.04987826 19.8384211,3.1184 18.5317544,1.70170435" id="Fill-4" fill="#3D3D42"></path> <path data-v-9ec103a4="" d="M16.5256842,3.47446957 C15.8898947,2.78368696 14.9512982,2.52142609 14.0846316,2.7016 C13.7305965,2.77568696 13.5049825,3.11690435 13.5807719,3.46403478 C13.6565614,3.80977391 14.0046316,4.03203478 14.3583158,3.95655652 L14.3583158,3.95725217 C14.7818246,3.8696 15.2411228,3.9976 15.552,4.33464348 C15.8628772,4.67203478 15.9467368,5.13255652 15.8130526,5.53603478 L15.8137544,5.53603478 C15.7028772,5.87307826 15.8909474,6.23516522 16.2355088,6.34438261 C16.5800702,6.45255652 16.9495439,6.26855652 17.0607719,5.93081739 C17.3330526,5.10542609 17.1628772,4.16455652 16.5256842,3.47446957" id="Fill-6" fill="#3D3D42"></path> <path data-v-9ec103a4="" d="M8.53638596,10.788313 C8.42129825,10.9810087 8.1665614,11.0738783 7.96726316,10.9935304 C7.77112281,10.9142261 7.7097193,10.6985739 7.82094737,10.5093565 C7.93568421,10.3208348 8.18024561,10.2290087 8.37603509,10.3048348 C8.57463158,10.3757913 8.64621053,10.5938783 8.53638596,10.788313 M7.48726316,12.1069217 C7.16866667,12.604313 6.48691228,12.8224 5.97322807,12.592487 C5.46691228,12.3670957 5.31778947,11.7893565 5.63603509,11.3037913 C5.95042105,10.8210087 6.6097193,10.6060522 7.11954386,10.8150957 C7.63533333,11.0300522 7.79989474,11.6046609 7.48726316,12.1069217 M8.68340351,8.58587826 C7.11673684,8.18692174 5.34621053,8.95144348 4.66550877,10.3030957 C3.97252632,11.6818783 4.64270175,13.212313 6.22550877,13.712487 C7.86515789,14.2304 9.79778947,13.4370087 10.4697193,11.9486609 C11.1321754,10.4940522 10.3051579,8.99631304 8.68340351,8.58587826" id="Fill-8" fill="#3D3D42"></path></g></g></g></g></g></g></svg>