<svg data-v-9ec103a4="" width="32px" height="32px" viewBox="0 0 32 32" version="1.1" xmlns="http://www.w3.org/2000/svg" xmlns:xlink="http://www.w3.org/1999/xlink"><title data-v-9ec103a4="">foot_wechat</title> <desc data-v-9ec103a4="">Created with Sketch.</desc> <defs data-v-9ec103a4=""></defs> <g data-v-9ec103a4="" id="Page-1" stroke="none" stroke-width="1" fill="none" fill-rule="evenodd"><g data-v-9ec103a4="" id="首页" transform="translate(-735.000000, -4667.000000)"><g data-v-9ec103a4="" id="4" transform="translate(0.000000, 4008.000000)"><g data-v-9ec103a4="" id="Group-16" transform="translate(0.000000, 488.000000)"><g data-v-9ec103a4="" id="foot_wechat" transform="translate(735.000000, 171.000000)"><circle data-v-9ec103a4="" id="Oval-2-Copy" fill="#B8BBC0" cx="16" cy="16" r="16"></circle> <g data-v-9ec103a4="" id="Page-1" transform="translate(7.000000, 9.000000)" fill="#3D3D42"><path data-v-9ec103a4="" d="M4.211928,4.46809756 C3.724008,4.46809756 3.328368,4.06614634 3.328368,3.57017073 C3.328368,3.07431707 3.724008,2.67236585 4.211928,2.67236585 C4.699848,2.67236585 5.095488,3.07431707 5.095488,3.57017073 C5.095488,4.06614634 4.699848,4.46809756 4.211928,4.46809756 M8.718768,2.67236585 C9.206688,2.67236585 9.602208,3.07431707 9.602208,3.57017073 C9.602208,4.06614634 9.206688,4.46809756 8.718768,4.46809756 C8.230728,4.46809756 7.835208,4.06614634 7.835208,3.57017073 C7.835208,3.07431707 8.230728,2.67236585 8.718768,2.67236585 M12.164688,4.62309756 C12.370848,4.62309756 12.574728,4.63809756 12.777048,4.66102439 C12.226728,2.05687805 9.487128,0.121878049 6.359928,0.121878049 C2.863848,0.121878049 4.8e-05,2.54334146 4.8e-05,5.61870732 C4.8e-05,7.39431707 0.952728,8.85139024 2.545008,9.98236585 L1.908888,11.9266341 L4.132128,10.7937073 C4.927728,10.9534634 5.566128,11.1182195 6.359928,11.1182195 C6.559488,11.1182195 6.757488,11.1080976 6.953808,11.0924878 C6.829488,10.6606585 6.757488,10.2080976 6.757488,9.73809756 C6.757488,6.91443902 9.143568,4.62309756 12.164688,4.62309756" id="Fill-1"></path> <path data-v-9ec103a4="" d="M14.366868,8.91621951 C13.984908,8.91621951 13.675188,8.60158537 13.675188,8.21329268 C13.675188,7.8252439 13.984908,7.5104878 14.366868,7.5104878 C14.748948,7.5104878 15.058548,7.8252439 15.058548,8.21329268 C15.058548,8.60158537 14.748948,8.91621951 14.366868,8.91621951 M10.901268,8.91621951 C10.519308,8.91621951 10.209588,8.60158537 10.209588,8.21329268 C10.209588,7.8252439 10.519308,7.5104878 10.901268,7.5104878 C11.283228,7.5104878 11.592948,7.8252439 11.592948,8.21329268 C11.592948,8.60158537 11.283228,8.91621951 10.901268,8.91621951 M12.566988,4.97 C9.540948,4.97 7.157628,7.07634146 7.157628,9.66060976 C7.157628,12.2490244 9.540948,14.3509756 12.566988,14.3509756 C13.200348,14.3509756 13.839348,14.1884146 14.475348,14.0264634 L16.219908,14.997561 L15.741588,13.3823171 C17.018148,12.4090244 17.969268,11.1182927 17.969268,9.66060976 C17.969268,7.07634146 15.424908,4.97 12.566988,4.97 Z" id="Fill-4"></path></g></g></g></g></g></g></svg>